<?xml version="1.0" encoding="UTF-8" ?>
<svg id="a" xmlns="http://www.w3.org/2000/svg" viewBox="0 0 196.07 279.34"><defs
  ><style>.b{fill:#918cf2;}</style></defs><path
    class="b"
    d="M97.86,279.34c-18.5,0-35.11-4.33-49.82-12.99-14.71-8.66-26.33-20.46-34.87-35.41C4.63,216,.23,199.16,0,180.42V18.15C0,12.69,1.72,8.31,5.16,4.98,8.6,1.66,12.93,0,18.15,0s9.84,1.66,13.17,4.98c3.32,3.33,4.98,7.71,4.98,13.17V114.23c8.3-9.96,18.33-17.85,30.07-23.66,11.74-5.81,24.61-8.72,38.61-8.72,17.31,0,32.85,4.33,46.62,12.99,13.76,8.66,24.61,20.41,32.56,35.23,7.95,14.83,11.92,31.62,11.92,50.35s-4.33,35.58-12.99,50.53c-8.66,14.95-20.34,26.75-35.05,35.41-14.71,8.66-31.44,12.99-50.17,12.99Zm0-32.03c12.1,0,22.89-2.9,32.38-8.72,9.49-5.81,17.02-13.82,22.6-24.02,5.57-10.2,8.36-21.58,8.36-34.16s-2.79-24.2-8.36-34.16c-5.58-9.96-13.11-17.85-22.6-23.66-9.49-5.81-20.28-8.72-32.38-8.72s-22.6,2.91-32.2,8.72c-9.61,5.82-17.14,13.7-22.6,23.66-5.46,9.96-8.18,21.35-8.18,34.16s2.72,23.96,8.18,34.16c5.45,10.2,12.99,18.21,22.6,24.02,9.61,5.82,20.34,8.72,32.2,8.72Z"
  /></svg>
