<?xml version="1.0" encoding="UTF-8" ?>
<svg id="a" xmlns="http://www.w3.org/2000/svg" viewBox="0 0 1896.74 450.5"><defs
  ><style>.b{fill:#918cf2;}</style></defs><path
    class="b"
    d="M122.9,350.83c-23.24,0-44.1-5.43-62.57-16.31-18.48-10.87-33.07-25.7-43.8-44.47C5.81,271.28,.29,250.13,0,226.59V22.79C0,15.94,2.16,10.43,6.48,6.26,10.8,2.09,16.24,0,22.79,0s12.36,2.09,16.54,6.26c4.17,4.18,6.26,9.69,6.26,16.54v120.67c10.43-12.51,23.02-22.42,37.76-29.72,14.75-7.3,30.91-10.95,48.49-10.95,21.75,0,41.26,5.44,58.55,16.31,17.28,10.88,30.91,25.63,40.89,44.25,9.98,18.62,14.97,39.71,14.97,63.24s-5.44,44.69-16.31,63.46c-10.88,18.77-25.55,33.6-44.02,44.47-18.48,10.88-39.48,16.31-63.02,16.31Zm0-40.22c15.2,0,28.75-3.65,40.67-10.95,11.91-7.3,21.38-17.35,28.38-30.17,7-12.81,10.5-27.11,10.5-42.9s-3.51-30.39-10.5-42.9c-7-12.51-16.47-22.42-28.38-29.72-11.92-7.3-25.47-10.95-40.67-10.95s-28.38,3.65-40.45,10.95c-12.07,7.31-21.53,17.21-28.38,29.72-6.86,12.51-10.28,26.82-10.28,42.9s3.42,30.1,10.28,42.9c6.85,12.81,16.31,22.87,28.38,30.17,12.07,7.3,25.54,10.95,40.45,10.95Z"
  /><path
    class="b"
    d="M416.09,350.83c-21.75,0-41.27-5.43-58.55-16.31-17.28-10.87-30.92-25.62-40.89-44.25-9.99-18.62-14.97-39.7-14.97-63.24s5.43-44.69,16.31-63.46c10.87-18.77,25.62-33.59,44.25-44.47,18.62-10.87,39.55-16.31,62.79-16.31s44.09,5.44,62.57,16.31c18.47,10.88,33.14,25.7,44.02,44.47,10.87,18.77,16.31,39.93,16.31,63.46h-17.43c0,23.54-4.99,44.62-14.97,63.24-9.99,18.62-23.62,33.37-40.89,44.25-17.28,10.88-36.8,16.31-58.55,16.31Zm8.94-40.22c15.19,0,28.75-3.65,40.67-10.95,11.91-7.3,21.3-17.28,28.16-29.94,6.85-12.66,10.28-26.89,10.28-42.68s-3.43-30.46-10.28-43.13c-6.86-12.66-16.24-22.64-28.16-29.94-11.92-7.3-25.47-10.95-40.67-10.95s-28.38,3.65-40.45,10.95c-12.07,7.31-21.61,17.28-28.6,29.94-7,12.67-10.5,27.04-10.5,43.13s3.5,30.02,10.5,42.68c7,12.67,16.54,22.65,28.6,29.94,12.07,7.3,25.54,10.95,40.45,10.95Zm100.11,38.88c-6.56,0-12-2.16-16.31-6.48-4.32-4.32-6.48-9.76-6.48-16.31v-68.38l8.49-47.37,37.09,16.09v99.66c0,6.56-2.17,12-6.48,16.31-4.32,4.32-9.76,6.48-16.31,6.48Z"
  /><path
    class="b"
    d="M717.76,350.83c-22.35,0-42.09-5.29-59.22-15.87-17.14-10.57-30.61-25.17-40.45-43.8-9.83-18.62-14.75-40-14.75-64.13s5.29-45.96,15.87-64.58c10.57-18.62,25.1-33.22,43.57-43.8,18.47-10.57,39.78-15.87,63.91-15.87s44.98,5.29,63.46,15.87c18.47,10.58,33,25.18,43.57,43.8,10.57,18.62,15.87,40.15,15.87,64.58h-26.37c0,24.13-4.55,45.52-13.63,64.13-9.09,18.62-21.53,33.23-37.32,43.8-15.8,10.58-33.97,15.87-54.52,15.87Zm8.04,99.66c-21.16,0-40.97-4.18-59.44-12.51-18.48-8.34-34.12-20.56-46.93-36.65-3.88-5.07-5.29-10.28-4.25-15.64,1.04-5.36,3.94-9.69,8.71-12.96,5.36-3.58,10.95-4.77,16.76-3.58,5.81,1.19,10.5,4.17,14.08,8.94,8.04,10.13,18.17,18.02,30.39,23.69,12.21,5.66,26.07,8.49,41.56,8.49,14.3,0,27.49-3.43,39.55-10.28,12.07-6.86,21.68-16.98,28.83-30.39,7.15-13.41,10.73-29.79,10.73-49.16v-63.46l14.75-39.33,29.05,9.39v96.54c0,23.54-5.22,44.92-15.64,64.13-10.43,19.22-24.96,34.48-43.57,45.81-18.62,11.32-40.15,16.98-64.58,16.98Zm.89-139.89c15.49,0,29.2-3.58,41.12-10.73,11.91-7.15,21.23-16.98,27.93-29.5,6.7-12.51,10.06-26.96,10.06-43.35s-3.35-30.91-10.06-43.57c-6.7-12.66-16.02-22.57-27.93-29.72-11.92-7.15-25.63-10.73-41.12-10.73s-29.2,3.58-41.12,10.73c-11.92,7.15-21.31,17.06-28.16,29.72-6.86,12.67-10.28,27.19-10.28,43.57s3.42,30.84,10.28,43.35c6.85,12.51,16.24,22.35,28.16,29.5,11.91,7.15,25.62,10.73,41.12,10.73Z"
  /><path
    class="b"
    d="M1032.39,350.83c-24.73,0-46.7-5.29-65.92-15.87-19.22-10.57-34.27-25.17-45.14-43.8-10.88-18.62-16.31-40-16.31-64.13s5.14-45.96,15.42-64.58c10.28-18.62,24.5-33.22,42.68-43.8,18.17-10.57,39.03-15.87,62.57-15.87s43.2,5.14,59.89,15.42c16.68,10.28,29.42,24.43,38.21,42.46,8.78,18.03,13.18,38.81,13.18,62.35,0,5.66-1.94,10.36-5.81,14.08-3.88,3.73-8.79,5.59-14.75,5.59h-180.11v-35.75h178.77l-18.32,12.51c-.3-14.9-3.28-28.23-8.94-40-5.66-11.77-13.71-21.08-24.13-27.93-10.43-6.85-23.09-10.28-37.99-10.28-16.98,0-31.51,3.73-43.57,11.17-12.07,7.45-21.23,17.65-27.49,30.61-6.26,12.96-9.39,27.64-9.39,44.02s3.72,30.99,11.17,43.8c7.44,12.81,17.72,22.95,30.84,30.39,13.11,7.45,28.16,11.17,45.14,11.17,9.23,0,18.69-1.71,28.38-5.14,9.68-3.42,17.5-7.37,23.46-11.84,4.47-3.28,9.31-4.99,14.53-5.14,5.21-.15,9.76,1.42,13.63,4.69,5.06,4.47,7.75,9.39,8.04,14.75,.29,5.36-2.09,9.99-7.15,13.85-10.13,8.04-22.72,14.6-37.77,19.66-15.05,5.07-29.43,7.6-43.13,7.6Z"
  /><path
    class="b"
    d="M1300.99,350.83c-24.73,0-46.7-5.29-65.92-15.87-19.22-10.57-34.27-25.17-45.14-43.8-10.88-18.62-16.31-40-16.31-64.13s5.14-45.96,15.42-64.58c10.28-18.62,24.5-33.22,42.68-43.8,18.17-10.57,39.03-15.87,62.57-15.87s43.2,5.14,59.89,15.42c16.68,10.28,29.42,24.43,38.21,42.46,8.79,18.03,13.18,38.81,13.18,62.35,0,5.66-1.94,10.36-5.81,14.08-3.88,3.73-8.79,5.59-14.75,5.59h-180.11v-35.75h178.77l-18.32,12.51c-.3-14.9-3.28-28.23-8.94-40-5.66-11.77-13.71-21.08-24.13-27.93-10.43-6.85-23.09-10.28-37.99-10.28-16.98,0-31.51,3.73-43.57,11.17-12.07,7.45-21.23,17.65-27.49,30.61-6.26,12.96-9.39,27.64-9.39,44.02s3.72,30.99,11.17,43.8c7.44,12.81,17.72,22.95,30.84,30.39,13.11,7.45,28.16,11.17,45.14,11.17,9.23,0,18.69-1.71,28.38-5.14,9.68-3.42,17.5-7.37,23.46-11.84,4.47-3.28,9.31-4.99,14.53-5.14,5.21-.15,9.76,1.42,13.63,4.69,5.06,4.47,7.74,9.39,8.04,14.75,.29,5.36-2.09,9.99-7.15,13.85-10.13,8.04-22.72,14.6-37.76,19.66-15.05,5.07-29.43,7.6-43.13,7.6Z"
  /><path
    class="b"
    d="M1486.02,349.05c-7.15,0-12.67-1.86-16.54-5.59-3.88-3.72-5.81-9.31-5.81-16.76V126.93c0-7.15,1.93-12.66,5.81-16.54,3.87-3.87,9.38-5.81,16.54-5.81s13.03,1.86,16.76,5.59c3.72,3.73,5.59,9.32,5.59,16.76v199.77c0,7.15-1.87,12.67-5.59,16.54-3.73,3.88-9.32,5.81-16.76,5.81Zm-.45-152.85c0-17.88,4.39-33.89,13.18-48.04,8.79-14.15,20.63-25.4,35.53-33.74,14.9-8.34,31.28-12.51,49.16-12.51s31.21,2.91,40,8.71c8.78,5.81,12.14,12.74,10.05,20.78-.89,4.18-2.61,7.37-5.14,9.61-2.54,2.23-5.44,3.65-8.72,4.25-3.28,.6-6.86,.45-10.73-.45-19.07-3.87-36.2-4.17-51.4-.89-15.2,3.28-27.19,9.39-35.98,18.32-8.79,8.94-13.18,20.27-13.18,33.97h-22.79Z"
  /><path
    class="b"
    d="M1764.9,350.83c-21.75,0-41.27-5.43-58.55-16.31-17.28-10.87-30.91-25.62-40.89-44.25-9.99-18.62-14.97-39.7-14.97-63.24s5.43-44.69,16.31-63.46c10.87-18.77,25.62-33.59,44.24-44.47,18.62-10.87,39.55-16.31,62.79-16.31s44.09,5.44,62.57,16.31c18.47,10.88,33.14,25.7,44.02,44.47,10.87,18.77,16.31,39.93,16.31,63.46h-17.43c0,23.54-4.99,44.62-14.97,63.24-9.99,18.62-23.62,33.37-40.89,44.25-17.28,10.88-36.8,16.31-58.55,16.31Zm8.94-40.22c15.2,0,28.75-3.65,40.67-10.95,11.91-7.3,21.3-17.28,28.16-29.94,6.85-12.66,10.28-26.89,10.28-42.68s-3.43-30.46-10.28-43.13c-6.86-12.66-16.24-22.64-28.16-29.94-11.92-7.3-25.47-10.95-40.67-10.95s-28.38,3.65-40.45,10.95c-12.07,7.31-21.61,17.28-28.6,29.94-7,12.67-10.5,27.04-10.5,43.13s3.5,30.02,10.5,42.68c7,12.67,16.54,22.65,28.6,29.94,12.07,7.3,25.54,10.95,40.45,10.95Zm100.11,38.88c-6.56,0-12-2.16-16.31-6.48-4.32-4.32-6.48-9.76-6.48-16.31v-68.38l8.49-47.37,37.09,16.09v99.66c0,6.56-2.17,12-6.48,16.31-4.32,4.32-9.76,6.48-16.31,6.48Z"
  /></svg>
